<svg xmlns="http://www.w3.org/2000/svg" width="18" height="17.997" viewBox="0 0 18 17.997">
  <g id="Expanded" transform="translate(22.006 -187)">
    <g id="Group_14" data-name="Group 14" transform="translate(-22.006 187)">
      <g id="Group_8" data-name="Group 8" transform="translate(0 0.003)">
        <path id="Path_4" data-name="Path 4" d="M5.679,20h0A3.669,3.669,0,0,1,4.24,19.71a.409.409,0,0,1-.13-.665L5.556,17.6V16.442H4.4L2.953,17.888a.409.409,0,0,1-.665-.13A3.681,3.681,0,0,1,6.85,12.834l5.973-5.973A3.681,3.681,0,0,1,17.747,2.3a.409.409,0,0,1,.13.665L16.431,4.41V5.567h1.157l1.446-1.446a.409.409,0,0,1,.665.13,3.68,3.68,0,0,1-4.562,4.924L9.164,15.148A3.678,3.678,0,0,1,5.679,20Zm-.506-.862a2.887,2.887,0,0,0,.506.044A2.86,2.86,0,0,0,8.311,15.2a.409.409,0,0,1,.088-.449L14.745,8.41a.409.409,0,0,1,.449-.088,2.862,2.862,0,0,0,3.935-3.14L18.046,6.265a.409.409,0,0,1-.289.12H16.022a.409.409,0,0,1-.409-.409V4.241a.407.407,0,0,1,.12-.289L16.815,2.87a2.9,2.9,0,0,0-.506-.044A2.86,2.86,0,0,0,13.676,6.8a.409.409,0,0,1-.088.449L7.242,13.6a.409.409,0,0,1-.449.088,2.862,2.862,0,0,0-3.935,3.14l1.083-1.083a.409.409,0,0,1,.289-.12H5.965a.409.409,0,0,1,.409.409v1.736a.407.407,0,0,1-.12.289Z" transform="translate(-1.994 -2.007)" fill="#534a88"/>
      </g>
      <g id="Group_9" data-name="Group 9" transform="translate(11.327 11.324)">
        <path id="Path_5" data-name="Path 5" d="M34.723,36.359a1.626,1.626,0,0,1-1.157-.479l-3.76-3.76a.409.409,0,0,1,0-.578l1.735-1.735a.409.409,0,0,1,.578,0l3.76,3.76a1.636,1.636,0,0,1-1.157,2.793ZM30.674,31.83,34.144,35.3a.838.838,0,0,0,1.157,0,.818.818,0,0,0,0-1.157L31.83,30.673Z" transform="translate(-29.686 -29.686)" fill="#534a88"/>
      </g>
      <g id="Group_10" data-name="Group 10" transform="translate(3.015 3.012)">
        <rect id="Rectangle_15" data-name="Rectangle 15" width="6.601" height="0.818" transform="translate(0.578) rotate(45)" fill="#534a88"/>
      </g>
      <g id="Group_11" data-name="Group 11" transform="translate(10.459 10.457)">
        <path id="Path_6" data-name="Path 6" d="M27.973,31.854a.409.409,0,0,1-.289-.7l3.471-3.471a.409.409,0,0,1,.578.578l-3.471,3.471A.408.408,0,0,1,27.973,31.854Z" transform="translate(-27.564 -27.565)" fill="#534a88"/>
      </g>
      <g id="Group_12" data-name="Group 12" transform="translate(0.003 0)">
        <path id="Path_7" data-name="Path 7" d="M4.723,6.289a.408.408,0,0,1-.289-.12L2.12,3.855a.409.409,0,0,1,0-.578L3.277,2.12a.409.409,0,0,1,.578,0L6.169,4.434a.409.409,0,0,1,0,.578L5.012,6.169A.406.406,0,0,1,4.723,6.289ZM2.987,3.566,4.723,5.3,5.3,4.723,3.566,2.987Z" transform="translate(-2 -2)" fill="#534a88"/>
      </g>
      <g id="Group_13" data-name="Group 13" transform="translate(9.418 9.415)">
        <rect id="Rectangle_16" data-name="Rectangle 16" width="4.246" height="0.818" transform="translate(0.578) rotate(45)" fill="#534a88"/>
      </g>
    </g>
  </g>
</svg>
