<svg xmlns="http://www.w3.org/2000/svg" width="18" height="18" viewBox="0 0 18 18">
  <g id="Layer_2" transform="translate(-3 -3)">
    <g id="Group_15" data-name="Group 15">
      <path id="Path_10" data-name="Path 10" d="M12,13H11V12a.945.945,0,0,0-1-1,.945.945,0,0,0-1,1v1H8a1,1,0,0,0,0,2H9v1a.945.945,0,0,0,1,1,.945.945,0,0,0,1-1V15h1a1,1,0,0,0,0-2Z" fill="#534a88"/>
      <path id="Path_11" data-name="Path 11" d="M17,3H11A4.012,4.012,0,0,0,7,7a4.012,4.012,0,0,0-4,4v6a4.012,4.012,0,0,0,4,4h6a4.012,4.012,0,0,0,4-4,4.012,4.012,0,0,0,4-4V7A4.012,4.012,0,0,0,17,3ZM15,16v1a2.006,2.006,0,0,1-2,2H7a2.006,2.006,0,0,1-2-2V11A2.006,2.006,0,0,1,7,9h6a2.006,2.006,0,0,1,2,2Zm4-3a2.006,2.006,0,0,1-2,2V11a4.012,4.012,0,0,0-4-4H9a2.006,2.006,0,0,1,2-2h6a2.006,2.006,0,0,1,2,2Z" fill="#534a88"/>
    </g>
  </g>
</svg>
